<svg xmlns="http://www.w3.org/2000/svg" xmlns:xlink="http://www.w3.org/1999/xlink" width="308" zoomAndPan="magnify" viewBox="0 0 230.87999 179.999997" height="240" preserveAspectRatio="xMidYMid meet" version="1.0"><defs><clipPath id="06fbb785ed"><path d="M 0 0.277344 L 229 0.277344 L 229 179.03125 L 0 179.03125 Z M 0 0.277344 " clip-rule="nonzero"/></clipPath></defs><g clip-path="url(#06fbb785ed)"><path fill="#000000" d="M 212.1875 54.28125 C 211.253906 47.328125 211.125 35.324219 217.582031 31.308594 C 217.6875 31.234375 217.777344 31.128906 217.886719 31.039062 C 223.15625 29.34375 226.804688 26.964844 223.945312 23.777344 L 146.132812 0.277344 L 20.15625 17.828125 C 20.15625 17.828125 5.734375 19.902344 7.011719 42.371094 C 7.714844 54.589844 11.542969 60.589844 14.886719 63.542969 L 4.546875 66.679688 C 1.691406 69.867188 5.339844 72.230469 10.609375 73.921875 C 10.714844 74.011719 10.789062 74.121094 10.914062 74.195312 C 17.351562 78.230469 17.222656 90.210938 16.308594 97.1875 C -6.851562 103.761719 1.457031 105.925781 1.457031 105.925781 L 6.542969 107.152344 C 2.964844 110.394531 -0.59375 116.519531 0.0898438 128.160156 C 1.367188 150.632812 13.214844 152.179688 13.214844 152.179688 L 95.664062 179.03125 L 220.097656 148.828125 C 220.097656 148.828125 228.40625 146.667969 205.246094 140.070312 C 204.3125 133.132812 204.1875 121.132812 210.640625 117.097656 C 210.765625 117.023438 210.839844 116.917969 210.945312 116.828125 C 216.214844 115.132812 219.863281 112.773438 217.003906 109.582031 L 211.59375 107.945312 C 215.207031 105.761719 220.621094 100.070312 221.464844 85.257812 C 222.058594 75.09375 219.398438 69.128906 216.339844 65.617188 L 227.019531 63.023438 C 227.019531 63.023438 235.34375 60.878906 212.1875 54.28125 Z M 108.105469 53.992188 L 129.015625 49.6875 L 199.746094 35.109375 L 210.28125 32.949219 C 206.902344 39.128906 207.046875 47.578125 207.601562 53.003906 C 207.730469 54.226562 207.871094 55.34375 208 56.210938 L 196.472656 59.074219 L 107.226562 81.328125 Z M 18.210938 75.851562 L 28.75 78.011719 L 96.65625 92.015625 L 102.585938 93.238281 L 120.386719 96.898438 L 121.25 124.234375 L 29.519531 101.367188 L 20.476562 99.113281 C 20.621094 98.25 20.746094 97.132812 20.890625 95.90625 C 21.429688 90.484375 21.574219 82.03125 18.210938 75.851562 Z M 14.113281 41.289062 C 13.988281 35.308594 15.046875 30.984375 17.207031 28.785156 C 18.570312 27.378906 20.191406 27.089844 21.285156 27.089844 C 21.878906 27.089844 22.292969 27.179688 22.328125 27.179688 L 76.609375 44.914062 L 103.683594 53.757812 L 102.804688 81.292969 L 26.824219 59.941406 L 22.816406 58.824219 C 22.671875 58.785156 22.457031 58.75 22.3125 58.75 C 21.988281 58.714844 14.492188 58.03125 14.113281 41.289062 Z M 95.863281 167.101562 L 15.875 144.628906 C 15.730469 144.578125 15.535156 144.558594 15.371094 144.539062 C 15.046875 144.523438 7.53125 143.839844 7.171875 127.097656 C 7.046875 121.117188 8.109375 116.789062 10.265625 114.59375 C 11.632812 113.1875 13.234375 112.898438 14.347656 112.898438 C 14.921875 112.898438 15.355469 112.988281 15.371094 112.988281 C 15.371094 112.988281 15.390625 112.988281 15.371094 112.988281 L 96.746094 139.566406 Z M 200.664062 138.808594 C 200.789062 140.035156 200.933594 141.152344 201.058594 142.019531 L 100.285156 167.136719 L 101.148438 139.800781 L 122.707031 135.351562 L 125.886719 136.125 L 137.808594 132.25 L 192.789062 120.917969 L 203.324219 118.753906 C 199.960938 124.917969 200.105469 133.367188 200.664062 138.808594 Z M 206.21875 101.636719 C 206.039062 101.65625 205.839844 101.671875 205.679688 101.726562 L 198.074219 103.871094 L 125.691406 124.195312 L 124.808594 96.664062 L 148.558594 88.898438 L 206.054688 70.101562 C 206.054688 70.101562 209.078125 69.4375 211.289062 71.6875 C 213.429688 73.886719 214.507812 78.210938 214.378906 84.195312 C 214.003906 100.933594 206.488281 101.617188 206.21875 101.636719 Z M 206.21875 101.636719 " fill-opacity="1" fill-rule="nonzero"/></g></svg>